<svg xmlns="http://www.w3.org/2000/svg" viewBox="0 0 166.37 180.07"><defs><style>.cls-1{fill:#fff;}</style></defs><title>clap_1</title><g id="Layer_2" data-name="Layer 2"><g id="Layer_1-2" data-name="Layer 1"><path d="M30.08,60C41.31,54.68,48.42,57.49,57,71.41c5.91-6.13,11.61-12.19,17.47-18.08,8.89-8.94,15.82-9.09,25-.72,10.92-5.63,16.24-4.4,23.67,5.46,15.06-6.58,25.66,5.2,22,18.05C155.54,83.32,157,87.91,152.56,99c11.11,8.1,11.7,16.41,1.84,26.31q-18.33,18.4-36.67,36.81c-16.07,16-35.15,21.11-57.26,16.12-6.1-1.37-12.58-1-18.75-2.11C20.54,172.21,4,156.72.7,137.59c-.73-4.19-1.1-8.84,0-12.87,4-15.21,4.08-30.62,3.69-46.13-.09-3.49-.09-7-.07-10.49C4.31,57.44,12,52,22.12,55.72,24.88,56.71,27.34,58.52,30.08,60Zm.65,71.68c.11,11.46,3.42,19.39,10.09,25.87a49.43,49.43,0,0,0,68.69.67C122,146.45,133.83,134,146,121.86c1.77-1.77,3.6-3.48,5.26-5.34,2.4-2.67,2.57-6-.25-7.85-1.86-1.22-5.08-.68-7.62-.37-1.06.13-2,1.7-2.9,2.64q-11.15,11.13-22.28,22.27c-2.13,2.13-4.58,3.16-7,.8s-1.39-4.84.79-6.94c.72-.7,1.41-1.42,2.12-2.12q14.55-14.45,29.1-28.88c3.67-3.66,4.22-7.51,1.36-9.93-3.63-3.07-6.65-1.48-9.56,1.45-9.85,10-19.78,19.82-29.68,29.72-.94.94-1.83,2.43-2.92,2.61-1.88.3-4.4.4-5.69-.63-.92-.73-.6-3.53-.18-5.24.28-1.12,1.72-2,2.67-2.9L132.52,78c.83-.82,1.68-1.63,2.46-2.48,2.93-3.19,3.25-7.06.55-9.24-3.13-2.52-6.13-1.85-8.87.89Q108.29,85.6,89.89,104c-2.35,2.37-5,4-7.69,1s-.52-5.12,1.59-7.23q14-14,27.83-28c3.67-3.73,4.15-7.5,1.49-10.09s-6.11-1.95-9.89,1.83Q84.11,80.56,65.06,99.68c-2.81,2.83-6,4.47-9.86,3.11s-5.32-4.69-5.58-8.66C49.23,88,49,81.79,48.11,75.71a12.33,12.33,0,0,0-3.76-7.14c-1.77-1.48-4.92-2-7.3-1.71-.88.12-1.76,3.83-1.84,5.93-.49,13.64-.41,27.31-1.24,40.93C33.55,120.46,31.6,127.11,30.73,131.71Zm5.55,33.67c-11.61-11.85-16.89-25-13-40.33,4.3-17.13,3.4-34.36,2.67-51.63-.12-2.73-2.2-5.91-4.31-7.87-1.5-1.4-4.68-1.69-6.89-1.29-.88.17-1.63,3.53-1.66,5.45-.14,8.49.41,17-.08,25.46a169.79,169.79,0,0,1-3.1,26.18C5.56,141.14,15.5,158.92,36.28,165.38ZM58,92.31c10.88-10.11,22.14-20.46,33.25-31,2.82-2.66.65-5.2-1.8-5.52A10.34,10.34,0,0,0,82,58.08c-6.09,5.43-11.32,11.84-17.6,17-5.95,4.9-8.25,10.35-6.28,17.7C58.21,93.09,58.33,93.39,58,92.31Z"/><path d="M101.33,3.27c1.2-1.09,2.44-3.1,3.87-3.26s4.26,1.14,4.64,2.37q3.84,12.38,6.68,25c.28,1.23-1.66,3.87-3,4.28s-4.35-.94-4.72-2.12C106.09,21.2,103.91,12.67,101.33,3.27Z"/><path d="M166.37,31.16c-.56.67-1.32,2.33-2.58,3-7.28,3.6-14.68,7-22,10.4-2.76,1.29-5.39.59-6-2.2-.35-1.59,1.1-4.61,2.58-5.39,7-3.73,14.28-7,21.55-10.25C163.27,25.18,166.28,27,166.37,31.16Z"/><path d="M123.51,30.36c.65-1.84.91-2.8,1.32-3.69,3.12-6.78,6-13.67,9.6-20.23.87-1.62,4.08-3.31,5.71-2.91,3.17.78,3.13,3.7,1.83,6.51-3.28,7.07-6.32,14.27-9.88,21.2-.74,1.43-3.39,2.68-5.08,2.59C125.7,33.75,124.52,31.44,123.51,30.36Z"/><path class="cls-1" d="M30.73,131.71c.87-4.6,2.82-11.25,3.24-18,.83-13.62.75-27.29,1.24-40.93.08-2.1,1-5.81,1.84-5.93,2.38-.31,5.53.23,7.3,1.71a12.33,12.33,0,0,1,3.76,7.14C49,81.79,49.23,88,49.62,94.13c.26,4,1.62,7.28,5.58,8.66s7-.28,9.86-3.11q19-19.16,38.16-38.2c3.78-3.78,7.25-4.4,9.89-1.83s2.18,6.36-1.49,10.09q-13.86,14.07-27.83,28c-2.11,2.11-4.25,4.4-1.59,7.23s5.34,1.33,7.69-1q18.36-18.4,36.77-36.77c2.74-2.74,5.74-3.41,8.87-.89,2.7,2.18,2.38,6-.55,9.24-.78.85-1.63,1.66-2.46,2.48L99.19,111.15c-1,.94-2.39,1.78-2.67,2.9-.42,1.71-.74,4.51.18,5.24,1.29,1,3.81.93,5.69.63,1.09-.18,2-1.67,2.92-2.61,9.9-9.9,19.83-19.77,29.68-29.72,2.91-2.93,5.93-4.52,9.56-1.45,2.86,2.42,2.31,6.27-1.36,9.93q-14.52,14.48-29.1,28.88c-.71.7-1.4,1.42-2.12,2.12-2.18,2.1-3.22,4.54-.79,6.94s4.85,1.33,7-.8q11.13-11.15,22.28-22.27c.94-.94,1.84-2.51,2.9-2.64,2.54-.31,5.76-.85,7.62.37,2.82,1.85,2.65,5.18.25,7.85-1.66,1.86-3.49,3.57-5.26,5.34-12.12,12.15-24,24.59-36.44,36.39a49.43,49.43,0,0,1-68.69-.67C34.15,151.1,30.84,143.17,30.73,131.71Z"/><path class="cls-1" d="M36.28,165.38c-20.78-6.46-30.72-24.24-26.41-44A169.79,169.79,0,0,0,13,95.17c.49-8.46-.06-17,.08-25.46,0-1.92.78-5.28,1.66-5.45,2.21-.4,5.39-.11,6.89,1.29,2.11,2,4.19,5.14,4.31,7.87.73,17.27,1.63,34.5-2.67,51.63C19.39,140.35,24.67,153.53,36.28,165.38Z"/><path class="cls-1" d="M58,92.31c.36,1.08.24.78.16.48-2-7.35.33-12.8,6.28-17.7,6.28-5.17,11.51-11.58,17.6-17a10.34,10.34,0,0,1,7.41-2.25c2.45.32,4.62,2.86,1.8,5.52C80.11,71.85,68.85,82.2,58,92.31Z"/></g></g></svg>