<svg xmlns="http://www.w3.org/2000/svg" viewBox="0 0 225 172.85"><title>connect</title><g id="Layer_2" data-name="Layer 2"><g id="Layer_1-2" data-name="Layer 1"><g id="OVNAf3"><path d="M225,123.92c-1.9.75-3.8,2.12-5.71,2.13-23.32.15-46.63.12-69.95.07-5.35,0-6.75-2.61-4.16-7.31,4.06-7.36,9.85-12.36,22.6-19.49-15-16.58-15.95-33.1-2.64-45.31a28.82,28.82,0,0,1,40.44,1.84c11.54,12.35,9.7,29.61-5.1,43.59,10.89,4.23,18.82,11.64,24.52,21.48ZM205.28,75a21,21,0,1,0-21.13,21.18A20.77,20.77,0,0,0,205.28,75Zm8.09,43.76c-11.68-18.84-47-18.82-57.8-.41a5.22,5.22,0,0,0,1.33.39C175.52,118.75,194.14,118.75,213.37,118.75Z"/><path d="M0,121.92A45.75,45.75,0,0,1,24.6,99.6C9.34,83,8.15,66.81,21.16,54.46a28.66,28.66,0,0,1,40.43,1.15C73.41,68,71.77,85,57.37,99.14c4,2.51,8.39,4.57,11.88,7.65a66.48,66.48,0,0,1,10.44,11.95c3.25,4.67,1.51,7.44-4.19,7.44-23.16,0-46.32.09-69.48-.13-2,0-4-2-6-3.13ZM40.83,96.17a21.1,21.1,0,0,0,21-21A21.45,21.45,0,0,0,40.34,54.09,21.22,21.22,0,0,0,19.71,75,20.84,20.84,0,0,0,40.83,96.17Zm29.5,22.32c-8.67-10.4-19.24-14.74-31.59-14.1-12.61.66-24.05,7.26-26.47,14.1Z"/><path d="M114,0c26.3,1,48.51,12.29,64.21,35.51,1,1.53,1.7,4.2,1.08,5.75-1.2,3-4.7,2.28-7.27-1.53A71.32,71.32,0,0,0,54.18,38.06c-1.77,2.51-3.24,7.1-7.4,4.21-4.45-3.08-.45-6.28,1.37-8.86C62.88,12.46,86.9.07,114,0Z"/><path d="M111.13,172.85c-25.65-.84-47.4-11.73-63.34-33.75-.78-1.08-2-2.2-2-3.36-.13-1.73.53-3.52.86-5.28a25.08,25.08,0,0,1,5.25,1.08c.91.39,1.38,1.81,2,2.76a71.11,71.11,0,0,0,117.13.07c.47-.68.82-1.68,1.47-2,1.86-.82,3.86-1.34,5.8-2,.18,2.05,1.33,5,.39,6-6.83,7.63-13.37,15.79-21.35,22.07C144.89,168.31,128.28,172.81,111.13,172.85Z"/><path d="M205.28,75a20.77,20.77,0,0,1-21.13,21.18,21.08,21.08,0,0,1-21-21A21,21,0,0,1,205.28,75Z"/><path d="M213.37,118.75c-19.23,0-37.85,0-56.47,0a5.22,5.22,0,0,1-1.33-.39C166.34,99.93,201.69,99.91,213.37,118.75Z"/></g></g></g></svg>