<svg xmlns="http://www.w3.org/2000/svg" viewBox="0 0 148.6 148.13"><defs><style>.cls-1{fill:#fff;}</style></defs><title>Asset 5</title><g id="Layer_2" data-name="Layer 2"><g id="Layer_1-2" data-name="Layer 1"><path class="cls-1" d="M82.28,62.16c13-15.6,30.92-19.73,48.15-11.89,7.61,3.46,12.22,9.58,14.84,17.31a67.1,67.1,0,0,1,3.25,21.65c0,18-.09,36,.08,54,0,3.62-.82,5-4.69,4.89-7-.29-14-.29-21,0-4,.16-5.47-.9-5.39-5.21.26-15.33.13-30.67.07-46a58.2,58.2,0,0,0-.55-9c-1.52-9.43-6.23-13.88-14.6-14.12-9.64-.28-15.76,4.23-17.89,13.27A55.39,55.39,0,0,0,83.38,100c0,14.5-.08,29,.08,43.5,0,3.42-.88,4.7-4.45,4.59-7.49-.23-15-.17-22.49,0-3,.06-4.05-.9-4-4q.14-45.49,0-91c0-3.3,1.36-3.84,4.17-3.79,7,.14,14,.26,21,0,3.8-.16,5.14,1.07,4.7,4.8A77.58,77.58,0,0,0,82.28,62.16Z"/><path class="cls-1" d="M2.56,98.09c0-14.66.1-29.32-.08-44,0-3.54.62-5,4.58-4.87,7.65.33,15.32.18,23,.06,2.57,0,3.45.8,3.44,3.43q-.1,46,0,91.94c0,2.69-1,3.42-3.51,3.38-7.66-.09-15.32-.18-23,0-3.49.1-4.54-1.06-4.5-4.54C2.65,128.4,2.56,113.25,2.56,98.09Z"/><path class="cls-1" d="M35.77,17.72A17.57,17.57,0,0,1,18.24,35.66,17.82,17.82,0,0,1,0,17.83,18.17,18.17,0,0,1,17.87,0,17.92,17.92,0,0,1,35.77,17.72Z"/></g></g></svg>