<svg xmlns="http://www.w3.org/2000/svg" viewBox="0 0 67.03 66.52"><title>Asset 23</title><g id="Layer_2" data-name="Layer 2"><g id="Layer_1-2" data-name="Layer 1"><g id="lqkDtL"><path d="M66.11,64.51H45.67a.93.93,0,0,1-.82-1.34l6.71-13.7A.92.92,0,0,0,51,48.18a8.11,8.11,0,0,1-.91-.32c-1.2-.53-1.82-.2-2.39,1-2,4.21-4.12,8.32-6,12.55-1.64,3.6-4.22,5.19-8.2,5.08-6-.16-11.94,0-17.91,0-4.17,0-6.31-2.28-5.93-6,.27-2.63,2-4.19,5.12-4.48,4.57-.42,9.13-.88,13.7-1.21a2,2,0,0,0,2-1.69c1.54-4.72,3.39-9.36,4.64-14.15,2.25-8.59,11.34-12.17,19.28-9,6.17,2.5,9.7,7,10.37,13.8.6,6.12,1.16,9.91,1.89,16,.06.57.26,2.44.38,3.71A.93.93,0,0,1,66.11,64.51Z"/><path d="M27.25,13.48A13.4,13.4,0,0,1,40.89,0a13.59,13.59,0,0,1,13.5,13.51A13.72,13.72,0,0,1,40.76,27.15,13.53,13.53,0,0,1,27.25,13.48Z"/><path d="M6.72,59C4.62,55.35,2.5,51.83.51,48.23-.52,46.35,0,44.94,2,44.12Q10.67,40.49,19.39,37c1.94-.79,3.29-.39,4.37,1.38a75.48,75.48,0,0,1,5,8.67c.52,1.18-.25,2.93-.42,4.41l-.5.06c-2.28-3.86-4.57-7.71-6.93-11.7L3.44,47c1.18,2,2.23,4,3.42,5.78C8.39,54.85,8.68,56.77,6.72,59Z"/></g><path d="M17.87,46.91l-5-.39a.53.53,0,0,0-.52.76l2.15,4.52a.53.53,0,0,0,.92.07l2.84-4.13a.53.53,0,0,0-.4-.83l-5-.39a.53.53,0,0,0-.52.76l2.15,4.52a.53.53,0,0,0,.92.07l2.84-4.13A.53.53,0,0,0,17.87,46.91Z"/></g></g></svg>