<svg xmlns="http://www.w3.org/2000/svg" viewBox="0 0 241.17 230.24"><defs><style>.cls-1{fill:#3768a7;}</style></defs><title>star</title><g id="Layer_2" data-name="Layer 2"><g id="Layer_1-2" data-name="Layer 1"><path class="cls-1" d="M128.59,5l30.34,61.5a8.94,8.94,0,0,0,6.72,4.88l67.87,9.86a8.92,8.92,0,0,1,4.94,15.22l-49.1,47.87a8.9,8.9,0,0,0-2.57,7.9l11.59,67.59a8.92,8.92,0,0,1-12.95,9.4l-60.69-31.91a9,9,0,0,0-8.31,0l-60.7,31.91a8.92,8.92,0,0,1-12.95-9.4l11.6-67.59a9,9,0,0,0-2.57-7.9L2.7,96.43a8.93,8.93,0,0,1,5-15.22l67.86-9.86a8.92,8.92,0,0,0,6.72-4.88L112.58,5A8.93,8.93,0,0,1,128.59,5Z"/></g></g></svg>