<svg xmlns="http://www.w3.org/2000/svg" viewBox="0 0 179.1 169.31"><defs><style>.cls-1{fill:#3768a7;}</style></defs><title>todo</title><g id="Layer_2" data-name="Layer 2"><g id="Layer_1-2" data-name="Layer 1"><path class="cls-1" d="M39.05,1.51l9.22,18.68a2.71,2.71,0,0,0,2,1.48l20.61,3a2.72,2.72,0,0,1,1.5,4.63L57.51,43.82a2.72,2.72,0,0,0-.78,2.4l3.52,20.53a2.71,2.71,0,0,1-3.93,2.86l-18.44-9.7a2.74,2.74,0,0,0-2.52,0l-18.43,9.7A2.72,2.72,0,0,1,13,66.75l3.52-20.53a2.69,2.69,0,0,0-.78-2.4L.82,29.29a2.72,2.72,0,0,1,1.5-4.63l20.61-3a2.69,2.69,0,0,0,2-1.48L34.19,1.51A2.71,2.71,0,0,1,39.05,1.51Z"/><rect class="cls-1" x="81.49" y="15.91" width="97.61" height="22.91" rx="9.39" ry="9.39"/><rect class="cls-1" x="81.49" y="48.54" width="97.61" height="22.91" rx="9.39" ry="9.39"/><rect class="cls-1" x="5.22" y="81.16" width="173.88" height="22.91" rx="9.39" ry="9.39"/><rect class="cls-1" x="5.22" y="113.78" width="173.88" height="22.91" rx="9.39" ry="9.39"/><rect class="cls-1" x="5.22" y="146.4" width="173.88" height="22.91" rx="9.39" ry="9.39"/></g></g></svg>