<svg xmlns="http://www.w3.org/2000/svg" viewBox="0 0 117.05 114.99"><defs><style>.cls-1{fill:#fff;}</style></defs><title>wall</title><g id="Layer_2" data-name="Layer 2"><g id="Layer_1-2" data-name="Layer 1"><g id="qea809"><path d="M87.81,93.58h2.31a7.11,7.11,0,0,1,7,5.32c.93,3.37,1.85,6.75,2.71,10.14A4.78,4.78,0,0,1,95.24,115c-2.87,0-5.74,0-8.61,0L68.8,115l-14,0L26,115H4.87A4.77,4.77,0,0,1,0,109.89a14.8,14.8,0,0,1,.6-2.68c.75-2.85,1.48-5.7,2.3-8.53a7.08,7.08,0,0,1,6.85-5.1h2.41V91.32a5.84,5.84,0,0,0-.05-2c-.22-.57-.85-1-1.31-1.45A10.67,10.67,0,0,1,8,81.28c-.23-2.45-.56-4.9-.76-7.35a9.89,9.89,0,0,1,4.07-9.08,10.23,10.23,0,0,1,6.43-2,13.47,13.47,0,0,1,5.38.73,10,10,0,0,1,6.38,8.32,20.11,20.11,0,0,1-.25,4.72c-.16,1.78-.39,3.56-.58,5.33a10.09,10.09,0,0,1-3.75,6.91,1,1,0,0,0-.31.63c0,1.35,0,2.7,0,4.11,1.84.08,3.69-.24,5.27.62a26.63,26.63,0,0,1,1.84-3A8.57,8.57,0,0,1,38.45,88c1.23,0,2.46,0,3.78,0v-.51c0-1.93,0-3.86,0-5.79a.74.74,0,0,0-.35-.68,12.59,12.59,0,0,1-5-9c-.36-3.37-.72-6.73-1.12-10.09A12.82,12.82,0,0,1,46.84,47.8a18.67,18.67,0,0,1,8.11.43A12.59,12.59,0,0,1,63.9,58.61a17.31,17.31,0,0,1-.12,5.08c-.24,2.11-.47,4.21-.68,6.32a17.42,17.42,0,0,1-1.55,6.58A13.25,13.25,0,0,1,57.87,81a.82.82,0,0,0-.31.49c0,2.13,0,4.27,0,6.48h1.57a16.34,16.34,0,0,1,4.3.28,8.81,8.81,0,0,1,6.25,5.93s0,.08.09.17c1.73-1,3.63-.71,5.55-.76,0-1.5,0-3,0-4.41,0-.13-.17-.28-.29-.39a10.2,10.2,0,0,1-3.78-7.32c-.23-2.44-.55-4.87-.8-7.3a10.07,10.07,0,0,1,7.41-10.91,13.77,13.77,0,0,1,8.89.48,10,10,0,0,1,6,9.64c-.11,2-.37,4-.59,5.95a40.43,40.43,0,0,1-.58,4.12,9.38,9.38,0,0,1-3.42,5.33.8.8,0,0,0-.34.69C87.82,90.81,87.81,92.17,87.81,93.58ZM36.56,111.64H63.37a5.46,5.46,0,0,1,0-2.92c.58-2.13,1.13-4.28,1.72-6.42a29.57,29.57,0,0,1,1.33-4.41,3.23,3.23,0,0,0,.11-2.63,5.21,5.21,0,0,0-4.32-3.82,38.37,38.37,0,0,0-5,0s0,0,0,.11a7.67,7.67,0,0,1-14.44.11.42.42,0,0,0-.49-.32H38.54a5.43,5.43,0,0,0-3.49,1.27,5.92,5.92,0,0,0-2,3.58,1.39,1.39,0,0,0,.11.77c.27.69.66,1.34.86,2,.79,2.8,1.53,5.61,2.28,8.42C36.61,108.76,37.12,110.12,36.56,111.64ZM49.77,51c-.42,0-1,0-1.47,0a8.59,8.59,0,0,0-1.6.16,9.51,9.51,0,0,0-7.58,10.47c.36,3.38.74,6.76,1.11,10.14A9.24,9.24,0,0,0,44,78.37a9.59,9.59,0,0,0,6.45,1.88A9.46,9.46,0,0,0,57.28,77a10.13,10.13,0,0,0,2.37-6c.27-2.8.58-5.59.9-8.38a11.37,11.37,0,0,0-.17-4.5,9.43,9.43,0,0,0-5.85-6.45A11.81,11.81,0,0,0,49.77,51ZM18.39,111.65H31.85a1.5,1.5,0,0,0,1.54-2q-1.3-4.89-2.62-9.78a3.64,3.64,0,0,0-3-2.87,24.11,24.11,0,0,0-3.07-.1.53.53,0,0,0-.58.37A6,6,0,0,1,18.42,101a5.91,5.91,0,0,1-5.71-3.7.53.53,0,0,0-.58-.36c-.77,0-1.53,0-2.3,0A3.83,3.83,0,0,0,6,99.83c-.88,3.24-1.74,6.48-2.61,9.73A1.52,1.52,0,0,0,5,111.64Zm63.14,0H95a1.51,1.51,0,0,0,1.58-2c-.88-3.29-1.76-6.59-2.67-9.87a3.55,3.55,0,0,0-3-2.76,25.94,25.94,0,0,0-3.06-.09c-.32,0-.42.14-.57.38a10.64,10.64,0,0,1-1.53,2.08,6.19,6.19,0,0,1-9.87-2.11.49.49,0,0,0-.54-.35c-.79,0-1.59,0-2.39,0a3.77,3.77,0,0,0-3.69,2.82c-.89,3.25-1.75,6.52-2.63,9.78a1.53,1.53,0,0,0,1.63,2.12ZM89.4,73.56c0-3.6-2-6.41-5.09-7.12a16.24,16.24,0,0,0-3.82-.26,6.76,6.76,0,0,0-6.74,7c.07,1.9.35,3.8.56,5.69a28.44,28.44,0,0,0,.43,3.46,7,7,0,0,0,10.77,4.2A6.4,6.4,0,0,0,88.45,82c.2-1.33.33-2.68.48-4C89.11,76.39,89.27,74.77,89.4,73.56Zm-71-7.43c-.69,0-1.39,0-2.07.14a6.8,6.8,0,0,0-5.79,7.25c.23,2.71.56,5.42.88,8.12a7,7,0,0,0,9.7,5.56,6.75,6.75,0,0,0,4.31-6c.26-2.45.52-4.9.76-7.35a6.72,6.72,0,0,0-2.89-6.41A7.58,7.58,0,0,0,18.42,66.13ZM45.57,83c0,2,0,4,0,6a5.15,5.15,0,0,0,.11,1,4.32,4.32,0,0,0,4.55,3.31,4.22,4.22,0,0,0,3.88-3.64c.13-1.34.08-2.7.1-4.05,0-.88,0-1.76,0-2.67A14.63,14.63,0,0,1,45.57,83Zm33.08,7.71c0,1.32,0,2.55,0,3.78a5.75,5.75,0,0,0,.09.93,2.89,2.89,0,0,0,2.79,2.3,2.73,2.73,0,0,0,2.83-2.33c.14-1.53,0-3.08,0-4.63A11.18,11.18,0,0,1,78.65,90.66Zm-57.39,0a11.27,11.27,0,0,1-5.71,0,2.16,2.16,0,0,0-.05.25c0,1.34,0,2.68,0,4a2.89,2.89,0,0,0,2.67,2.72,2.82,2.82,0,0,0,3-2.4C21.34,93.76,21.26,92.25,21.26,90.7Z"/><path d="M22.4,0c2.76,0,5.53.06,8.29,0a8.24,8.24,0,0,1,8.37,8.27c0,4.51,0,9,0,13.51a8.21,8.21,0,0,1-8.18,8c-3,0-6.08,0-9.12,0a.88.88,0,0,0-.84.45q-3.82,5.34-7.67,10.65a1.67,1.67,0,0,1-2.05.65,1.71,1.71,0,0,1-1-1.86c.17-2.49.31-5,.46-7.49.05-.86.08-1.73.14-2.6a.46.46,0,0,0-.3-.56,8.14,8.14,0,0,1-4.69-6.21,8.52,8.52,0,0,1-.1-1.51q0-6.4,0-12.83a8.13,8.13,0,0,1,6-8.19A10,10,0,0,1,14.26,0C17,0,19.69,0,22.4,0ZM13.85,34.15l.09,0c.07-.09.15-.17.21-.26,1.59-2.2,3.19-4.38,4.75-6.59a1.86,1.86,0,0,1,1.67-.85c3.38,0,6.75,0,10.12,0a4.9,4.9,0,0,0,5-5q0-6.57,0-13.14a4.85,4.85,0,0,0-4.63-4.94c-5.83,0-11.65,0-17.47,0a3.87,3.87,0,0,0-1.07.18A4.87,4.87,0,0,0,9,8.38q0,6,0,12.1a9.49,9.49,0,0,0,.12,2.07,4.82,4.82,0,0,0,3.75,3.83,1.62,1.62,0,0,1,1.32,1.73c0,.51,0,1-.08,1.51C14,31.13,13.93,32.64,13.85,34.15Z"/><path d="M98.39,39.53c1.41-1.47,2.67-2.94,4.09-4.24a8.75,8.75,0,0,1,14.1,3.85,8.49,8.49,0,0,1-2.2,9c-4.88,4.93-9.8,9.81-14.71,14.71a1.69,1.69,0,0,1-2.71,0c-3-3.05-6.08-6.11-9.13-9.16C86,51.84,84.05,50,82.18,48.1A8.78,8.78,0,0,1,94.43,35.53C95.74,36.78,97,38.1,98.39,39.53Zm-.1,11.08c2.83,0,5.66,0,8.49,0a1,1,0,0,0,.63-.24q2.4-2.36,4.77-4.74a5.26,5.26,0,0,0,1.5-3.41A5.44,5.44,0,0,0,104.4,38l-4.68,4.68a1.75,1.75,0,0,1-2.84,0Q94.47,40.27,92,37.86a5.11,5.11,0,0,0-3.54-1.43,5.49,5.49,0,0,0-5.13,3.35,5.41,5.41,0,0,0,1.14,5.88c1.55,1.56,3.09,3.11,4.66,4.64a1.22,1.22,0,0,0,.76.3C92.69,50.62,95.49,50.61,98.29,50.61Zm-.09,8.75L103.62,54H92.83Z"/><path d="M62.37,9.4A16.23,16.23,0,1,1,46.14,25.83,16.22,16.22,0,0,1,62.37,9.4ZM49.49,25.48A12.89,12.89,0,1,0,62.87,12.74,12.9,12.9,0,0,0,49.49,25.48Z"/><path class="cls-1" d="M22.38,17.1H17c-1.06,0-2.12,0-3.18,0a1.62,1.62,0,0,0-1.52,1.62,1.64,1.64,0,0,0,1.37,1.65,5.81,5.81,0,0,0,.93.06c3.54,0,7.08,0,10.62,0,1.74,0,3.48,0,5.21,0a2.59,2.59,0,0,0,1-.17,1.59,1.59,0,0,0,1-1.81,1.63,1.63,0,0,0-1.67-1.35C27.93,17.09,25.16,17.1,22.38,17.1ZM18.92,9.4H14.07a1.67,1.67,0,1,0,0,3.34h9.64a1.69,1.69,0,0,0,1.79-1.65A1.65,1.65,0,0,0,23.72,9.4Z"/><path d="M22.38,17.1c2.78,0,5.55,0,8.33,0a1.63,1.63,0,0,1,1.67,1.35,1.59,1.59,0,0,1-1,1.81,2.59,2.59,0,0,1-1,.17c-1.73,0-3.47,0-5.21,0-3.54,0-7.08,0-10.62,0a5.81,5.81,0,0,1-.93-.06,1.64,1.64,0,0,1-1.37-1.65,1.62,1.62,0,0,1,1.52-1.62c1.06,0,2.12,0,3.18,0h5.37Z"/><path d="M18.92,9.4h4.8a1.65,1.65,0,0,1,1.78,1.69,1.69,1.69,0,0,1-1.79,1.65H14.07a1.67,1.67,0,1,1,0-3.34Z"/><path d="M63.15,35.58a10.18,10.18,0,0,1-6.82-2.67A22.25,22.25,0,0,1,54,30.43,1.63,1.63,0,0,1,54.22,28a1.72,1.72,0,0,1,2.39.4,19.59,19.59,0,0,0,2.53,2.46c2.62,2,5.24,1.79,7.67-.42A16.08,16.08,0,0,0,68.15,29a1.68,1.68,0,0,1,2.39-.35,1.62,1.62,0,0,1,.21,2.47,11.34,11.34,0,0,1-6,4.15C64.11,35.46,63.47,35.52,63.15,35.58Z"/><path d="M67.09,23.6H65.58a1.66,1.66,0,0,1-.11-3.32q1.66-.06,3.33,0a1.66,1.66,0,0,1-.1,3.32Z"/><path d="M57.66,23.63a12.73,12.73,0,0,1-2.06-.16,1.55,1.55,0,0,1-1.14-1.89,1.72,1.72,0,0,1,1.6-1.32c1.06,0,2.12,0,3.17,0A1.63,1.63,0,0,1,60.8,22a1.61,1.61,0,0,1-1.63,1.59H57.66Z"/></g></g></g></svg>